<svg width="210" height="26" viewBox="0 0 210 26" fill="none" xmlns="http://www.w3.org/2000/svg">
<path d="M35.0416 13.0829C35.5048 14.1839 35.7369 15.3792 35.7369 16.6679C35.7369 17.9565 35.5015 19.1562 35.0297 20.2648C34.5578 21.3734 33.9048 22.3366 33.0718 23.1534C32.2387 23.9713 31.2679 24.608 30.1593 25.0636C29.0507 25.5192 27.8434 25.747 26.5385 25.747C25.2335 25.747 24.0262 25.5192 22.9177 25.0636C21.8091 24.608 20.8382 23.9713 20.0052 23.1534C19.1721 22.3366 18.5191 21.3723 18.0472 20.2648C17.5754 19.1562 17.34 17.9576 17.34 16.6679C17.34 15.3781 17.5721 14.1795 18.0353 13.0709C18.4985 11.9623 19.1472 11.0034 19.9813 10.1932C20.8144 9.38395 21.7895 8.75047 22.9057 8.29489C24.0219 7.8393 25.2325 7.61043 26.5385 7.61043C27.8445 7.61043 29.0539 7.83822 30.1712 8.29489C31.2874 8.75156 32.2626 9.38829 33.0956 10.2051C33.9287 11.023 34.5774 11.9819 35.0416 13.0829ZM32.5055 16.6679C32.5055 15.7871 32.3558 14.9735 32.0575 14.2272C31.7582 13.481 31.3384 12.8279 30.796 12.2693C30.2536 11.7118 29.6202 11.2822 28.8977 10.9839C28.1742 10.6856 27.3878 10.5359 26.5395 10.5359C25.6913 10.5359 24.9038 10.6856 24.1814 10.9839C23.4578 11.2822 22.8255 11.7118 22.2831 12.2693C21.7407 12.8279 21.3199 13.4799 21.0216 14.2272C20.7222 14.9746 20.5736 15.7882 20.5736 16.6679C20.5736 17.5476 20.7233 18.3665 21.0216 19.1204C21.3199 19.8754 21.7407 20.5273 22.2831 21.0784C22.8255 21.6283 23.4578 22.0568 24.1814 22.3638C24.9049 22.6707 25.6913 22.8237 26.5395 22.8237C27.3878 22.8237 28.1742 22.6707 28.8977 22.3638C29.6212 22.0568 30.2536 21.6283 30.796 21.0784C31.3384 20.5284 31.7592 19.8754 32.0575 19.1204C32.3558 18.3655 32.5055 17.5487 32.5055 16.6679ZM62.3007 15.812L59.0693 14.7978C58.4239 14.5939 57.9445 14.3064 57.631 13.9365C57.3164 13.5677 57.1591 13.1382 57.1591 12.6511C57.1591 12.227 57.273 11.8495 57.5008 11.5187C57.7286 11.1889 58.0464 10.9329 58.4565 10.7518C58.8654 10.5717 59.3372 10.4806 59.872 10.4806C60.768 10.4806 61.5664 10.7247 62.266 11.2117C62.9657 11.6998 63.4809 12.3756 63.8107 13.2401L66.4758 12.061C66.1612 11.1803 65.6861 10.4144 65.0494 9.76143C64.4127 9.10951 63.6534 8.59752 62.7737 8.22872C61.8929 7.85991 60.9264 7.67442 59.8731 7.67442C58.7255 7.67442 57.7069 7.89029 56.8185 8.32309C55.9301 8.7559 55.2337 9.35683 54.7315 10.127C54.2282 10.8971 53.9765 11.7866 53.9765 12.7922C53.9765 13.9561 54.3258 14.9583 55.0266 15.799C55.7262 16.6407 56.7599 17.2731 58.1278 17.6973L61.5002 18.782C62.1131 18.987 62.573 19.2538 62.88 19.5836C63.1869 19.9134 63.3399 20.3386 63.3399 20.8571C63.3399 21.2975 63.226 21.675 62.9982 21.9895C62.7704 22.3041 62.4472 22.5514 62.0317 22.7326C61.6152 22.9137 61.1238 23.0037 60.5576 23.0037C59.5509 23.0037 58.6474 22.7174 57.8458 22.1425C57.0441 21.5686 56.4302 20.779 56.0061 19.7723L53.317 20.9276C53.6468 21.9027 54.1544 22.7553 54.8378 23.4864C55.5223 24.2175 56.3391 24.7881 57.2904 25.196C58.2417 25.6049 59.2678 25.8088 60.3688 25.8088C61.5956 25.8088 62.6641 25.5886 63.5764 25.1482C64.4886 24.7078 65.2034 24.1026 65.723 23.3324C66.2415 22.5623 66.5018 21.6739 66.5018 20.6672C66.5018 19.4881 66.1515 18.4978 65.4518 17.6951C64.7522 16.8935 63.7022 16.2643 62.3029 15.8088L62.3007 15.812ZM67.426 10.7876H71.6087V25.529H74.8401V10.7876H78.9523V7.95754H67.426V10.7876ZM107.576 25.529H103.814C102.954 22.7456 101.446 21.0545 100.273 20.101C99.4297 19.4155 98.3786 19.0434 97.2917 19.0434V25.5301H94.0603V7.95862H100.617C101.812 7.95862 102.87 8.17448 103.789 8.60729C104.709 9.04009 105.428 9.66815 105.948 10.4936C106.466 11.3191 106.726 12.3301 106.726 13.5243C106.726 14.7186 106.438 15.7459 105.864 16.6028C105.434 17.246 104.89 17.7624 104.234 18.1529C103.748 18.4425 103.207 18.6236 102.652 18.7386C102.573 18.7549 102.489 18.7711 102.4 18.7874C106.352 21.1684 107.574 25.5301 107.574 25.5301L107.576 25.529ZM102.175 15.8706C102.599 15.6428 102.93 15.3239 103.166 14.915C103.401 14.506 103.519 14.0342 103.519 13.4994C103.519 12.9646 103.401 12.4732 103.166 12.073C102.93 11.6716 102.599 11.3581 102.175 11.1293C101.751 10.9015 101.248 10.7876 100.665 10.7876H97.2928V16.2123H100.665C101.247 16.2123 101.75 16.0984 102.175 15.8706ZM48.5638 19.0412H48.4032L40.1908 7.95754H37.6677V25.529H40.8991V14.25H41.0597L49.2244 25.529H51.7713V7.95754H48.5638V19.0412ZM91.8464 10.7876L92.2152 7.95754H80.5165V25.529H92.2152L91.8464 22.6989H83.7479V18.0433H91.7434V15.4367H83.7479V10.7876H91.8464ZM7.9745 13.9691H7.7337L3.30802 7.95754H0.160156V25.5322H3.40348L3.39263 13.4983H3.53148L7.70441 19.2029H8.00271L12.1735 13.4983H12.3123L12.3036 25.5322H15.547V7.95754H12.3991L7.97342 13.9691H7.9745ZM123.779 13.7055C123.48 14.5386 122.984 15.3055 122.292 16.0051C121.6 16.7048 120.755 17.2666 119.757 17.6918C118.758 18.116 117.63 18.3286 116.373 18.3286C115.116 18.3286 113.952 18.1008 112.882 17.6452C111.813 17.1896 110.885 16.5529 110.099 15.735C109.313 14.9182 108.695 13.9582 108.247 12.8583C107.799 11.7584 107.575 10.5555 107.575 9.24944C107.575 7.94344 107.795 6.73831 108.236 5.62972C108.676 4.52113 109.293 3.56224 110.087 2.75303C110.881 1.94383 111.809 1.31469 112.871 0.8667C113.931 0.418709 115.1 0.194172 116.373 0.194172C117.647 0.194172 118.758 0.406777 119.757 0.830904C120.755 1.25503 121.6 1.818 122.292 2.51765C122.984 3.2173 123.479 3.9842 123.779 4.81726L120.902 6.1851C120.572 5.28912 120.013 4.55368 119.227 3.97986C118.441 3.40604 117.489 3.11859 116.373 3.11859C115.257 3.11859 114.301 3.37783 113.461 3.89633C112.619 4.41483 111.967 5.13075 111.503 6.043C111.038 6.95525 110.807 8.02371 110.807 9.25053C110.807 10.4774 111.04 11.5501 111.503 12.47C111.966 13.3898 112.619 14.109 113.461 14.6275C114.301 15.146 115.272 15.4052 116.373 15.4052C117.474 15.4052 118.441 15.1189 119.227 14.544C120.013 13.9702 120.571 13.2434 120.902 12.3626L123.779 13.7066V13.7055ZM134.052 0.475115L140.112 18.0455H136.622L135.372 14.2956H128.579L127.306 18.0455H123.839L129.901 0.475115H134.052ZM134.429 11.4417L131.975 4.05796L129.5 11.4417H134.429ZM208.628 10.2148C207.928 9.41324 206.878 8.7841 205.479 8.32851L202.247 7.3143C201.603 7.11037 201.124 6.82292 200.809 6.45303C200.494 6.08422 200.337 5.65575 200.337 5.16763C200.337 4.7435 200.451 4.36602 200.679 4.03518C200.907 3.70542 201.225 3.44943 201.635 3.26828C202.043 3.08821 202.515 2.9971 203.05 2.9971C203.946 2.9971 204.744 3.24116 205.444 3.7282C206.144 4.21524 206.659 4.89211 206.989 5.75663L209.654 4.57754C209.339 3.69674 208.864 2.93093 208.227 2.27793C207.591 1.62601 206.833 1.1151 205.952 0.745212C205.071 0.376406 204.103 0.190918 203.051 0.190918C201.904 0.190918 200.885 0.406777 199.997 0.839582C199.108 1.27239 198.412 1.87332 197.91 2.64348C197.406 3.41363 197.155 4.30202 197.155 5.30864C197.155 6.47255 197.504 7.47484 198.205 8.3155C198.904 9.15724 199.938 9.78964 201.306 10.2138L204.678 11.2985C205.291 11.5035 205.751 11.7703 206.058 12.1001C206.365 12.4299 206.518 12.8551 206.518 13.3736C206.518 13.814 206.404 14.1914 206.176 14.506C205.948 14.8206 205.626 15.0679 205.21 15.2491C204.793 15.4302 204.302 15.5202 203.736 15.5202C202.729 15.5202 201.825 15.2339 201.024 14.659C200.222 14.0851 199.609 13.2955 199.184 12.2888L196.495 13.4441C196.825 14.4192 197.333 15.2718 198.016 16.0029C198.7 16.734 199.517 17.3046 200.468 17.7125C201.42 18.1214 202.445 18.3253 203.546 18.3253C204.773 18.3253 205.841 18.1051 206.753 17.6647C207.665 17.2243 208.38 16.6191 208.9 15.8489C209.419 15.0787 209.678 14.1904 209.678 13.1837C209.678 12.0046 209.327 11.0143 208.628 10.2127V10.2148ZM155.016 18.0444H151.255C150.394 15.261 148.887 13.5699 147.714 12.6164C146.871 11.9309 145.82 11.5588 144.734 11.5588V18.0444H141.503V0.474031H148.059C149.253 0.474031 150.311 0.68989 151.231 1.1227C152.151 1.5555 152.87 2.18355 153.389 3.00903C153.908 3.8345 154.167 4.84438 154.167 6.03975C154.167 7.23511 153.88 8.26018 153.306 9.11711C152.875 9.76035 152.332 10.2767 151.677 10.6672C151.191 10.9568 150.649 11.1379 150.095 11.2529C150.016 11.2692 149.931 11.2855 149.842 11.3017C153.795 13.6827 155.016 18.0433 155.016 18.0433V18.0444ZM149.617 8.38709C150.041 8.1593 150.372 7.84147 150.607 7.43253C150.842 7.02359 150.961 6.55174 150.961 6.01697C150.961 5.4822 150.842 4.99082 150.607 4.59056C150.372 4.18921 150.041 3.87572 149.617 3.64685C149.193 3.41906 148.688 3.30516 148.107 3.30516H144.734V8.72986H148.107C148.688 8.72986 149.191 8.61596 149.617 8.38817V8.38709ZM196.849 18.0444H193.087C192.227 15.261 190.719 13.5699 189.546 12.6164C188.704 11.9309 187.652 11.5588 186.567 11.5588V18.0444H183.335V0.474031H189.891C191.086 0.474031 192.143 0.68989 193.063 1.1227C193.983 1.5555 194.702 2.18355 195.222 3.00903C195.74 3.8345 195.999 4.84438 195.999 6.03975C195.999 7.23511 195.712 8.26018 195.138 9.11711C194.707 9.76035 194.164 10.2767 193.509 10.6672C193.023 10.9568 192.482 11.1379 191.927 11.2529C191.848 11.2692 191.764 11.2855 191.675 11.3017C195.627 13.6827 196.849 18.0433 196.849 18.0433V18.0444ZM191.448 8.38709C191.872 8.1593 192.203 7.84147 192.438 7.43253C192.674 7.02359 192.792 6.55174 192.792 6.01697C192.792 5.4822 192.674 4.99082 192.438 4.59056C192.203 4.18921 191.872 3.87572 191.448 3.64685C191.024 3.41906 190.52 3.30516 189.939 3.30516H186.567V8.72986H189.939C190.52 8.72986 191.024 8.61596 191.448 8.38817V8.38709ZM167.75 3.30407L168.119 0.474031H156.42V18.0455H168.119L167.75 15.2154H159.651V10.5598H167.647V7.9532H159.651V3.30407H167.75ZM181.294 3.30407L181.663 0.474031H169.964V18.0455H181.663L181.294 15.2154H173.195V10.5598H181.191V7.9532H173.195V3.30407H181.294Z" fill="black"/>
</svg>
